<svg width="46" height="46" viewBox="0 0 46 46" fill="none" xmlns="http://www.w3.org/2000/svg">
<path opacity="0.86" d="M5.48156 11.3934C5.48156 13.0351 5.45238 14.3951 5.48642 15.7503C5.58855 19.6069 6.78007 23.1478 9.34305 26.0038C12.261 29.2533 15.3639 32.357 18.5688 35.3248C21.2339 37.7922 25.1197 37.5105 27.5465 34.9945C30.0463 32.3959 30.0268 28.5344 27.4006 25.8047C25.0419 23.3518 22.5665 21.0155 20.2029 18.5723C18.1797 16.4837 18.0776 13.8608 19.843 12.0928C21.5987 10.3345 24.2103 10.4753 26.3258 12.5397C28.8207 14.9682 31.301 17.4163 33.7035 19.9372C39.4422 25.9698 39.452 35.1742 33.7813 41.0174C27.9793 46.9966 18.7536 47.288 12.548 41.5565C9.4549 38.7005 6.41532 35.757 3.64322 32.5999C-1.86694 26.3098 -1.02558 16.4983 5.48156 11.3934Z" fill="black"/>
<path opacity="0.92" d="M40.2106 34.3C40.2106 32.702 40.2446 31.3468 40.2057 29.9917C40.0793 25.6979 38.63 21.8947 35.6682 18.7715C33.0469 16.0126 30.3283 13.3412 27.5854 10.7086C24.7403 7.97398 20.801 7.95941 18.238 10.5774C15.6362 13.2343 15.6751 17.0764 18.418 19.9275C20.7183 22.3221 23.1208 24.6147 25.4358 26.9948C27.4638 29.0785 27.6486 31.7257 25.9513 33.4694C24.1373 35.3394 21.4722 35.184 19.2934 33.0371C16.9298 30.7057 14.5711 28.3694 12.2513 25.9942C6.16238 19.743 6.1332 10.3103 12.154 4.40395C18.2283 -1.55583 27.527 -1.45869 33.7618 4.64681C36.2518 7.08512 38.7419 9.51857 41.1638 12.0152C47.5202 18.5578 47.1457 28.7968 40.2106 34.3048V34.3Z" fill="black"/>
</svg>
